<svg width="17" height="17" viewBox="0 0 17 17" fill="none" xmlns="http://www.w3.org/2000/svg">
<path fill-rule="evenodd" clip-rule="evenodd" d="M7.0259 0.436876C7.38049 0.330503 7.75505 0.308497 8.11966 0.372617C8.48427 0.436737 8.82885 0.585206 9.12588 0.806172C9.42291 1.02714 9.66418 1.31448 9.83041 1.64527C9.99665 1.97606 10.0833 2.34113 10.0833 2.71133V14.2887C10.0833 14.6589 9.99665 15.0239 9.83041 15.3547C9.66418 15.6855 9.42291 15.9729 9.12588 16.1938C8.82885 16.4148 8.48427 16.5633 8.11966 16.6274C7.75505 16.6915 7.38049 16.6695 7.0259 16.5631L2.2759 15.1381C1.78673 14.9914 1.35789 14.6909 1.05299 14.2812C0.748101 13.8715 0.583397 13.3744 0.583313 12.8637V4.13633C0.583397 3.62563 0.748101 3.12855 1.05299 2.71884C1.35789 2.30913 1.78673 2.00862 2.2759 1.86188L7.0259 0.436876ZM10.875 2.16667C10.875 1.9567 10.9584 1.75534 11.1069 1.60687C11.2553 1.45841 11.4567 1.375 11.6666 1.375H14.0416C14.6715 1.375 15.2756 1.62522 15.721 2.07062C16.1664 2.51602 16.4166 3.12011 16.4166 3.75V4.54167C16.4166 4.75163 16.3332 4.95299 16.1848 5.10146C16.0363 5.24993 15.8349 5.33333 15.625 5.33333C15.415 5.33333 15.2137 5.24993 15.0652 5.10146C14.9167 4.95299 14.8333 4.75163 14.8333 4.54167V3.75C14.8333 3.54004 14.7499 3.33867 14.6014 3.19021C14.453 3.04174 14.2516 2.95833 14.0416 2.95833H11.6666C11.4567 2.95833 11.2553 2.87493 11.1069 2.72646C10.9584 2.57799 10.875 2.37663 10.875 2.16667ZM15.625 11.6667C15.8349 11.6667 16.0363 11.7501 16.1848 11.8985C16.3332 12.047 16.4166 12.2484 16.4166 12.4583V13.25C16.4166 13.8799 16.1664 14.484 15.721 14.9294C15.2756 15.3748 14.6715 15.625 14.0416 15.625H11.6666C11.4567 15.625 11.2553 15.5416 11.1069 15.3931C10.9584 15.2447 10.875 15.0433 10.875 14.8333C10.875 14.6234 10.9584 14.422 11.1069 14.2735C11.2553 14.1251 11.4567 14.0417 11.6666 14.0417H14.0416C14.2516 14.0417 14.453 13.9583 14.6014 13.8098C14.7499 13.6613 14.8333 13.46 14.8333 13.25V12.4583C14.8333 12.2484 14.9167 12.047 15.0652 11.8985C15.2137 11.7501 15.415 11.6667 15.625 11.6667ZM6.12498 7.70833C5.91502 7.70833 5.71365 7.79174 5.56519 7.94021C5.41672 8.08867 5.33331 8.29004 5.33331 8.5C5.33331 8.70996 5.41672 8.91133 5.56519 9.05979C5.71365 9.20826 5.91502 9.29167 6.12498 9.29167H6.12577C6.33573 9.29167 6.5371 9.20826 6.68556 9.05979C6.83403 8.91133 6.91744 8.70996 6.91744 8.5C6.91744 8.29004 6.83403 8.08867 6.68556 7.94021C6.5371 7.79174 6.33573 7.70833 6.12577 7.70833H6.12498Z" fill="white"/>
<path d="M15.625 8.5H11.6666M11.6666 8.5L13.25 6.91667M11.6666 8.5L13.25 10.0833" stroke="white" stroke-width="2" stroke-linecap="round" stroke-linejoin="round"/>
</svg>
