<svg width="20" height="18" viewBox="0 0 20 18" fill="none" xmlns="http://www.w3.org/2000/svg">
<path d="M19.9931 8.98242C19.9931 9.61523 19.4722 10.1109 18.8819 10.1109H17.7708L17.7951 15.743C17.7951 15.8379 17.7882 15.9328 17.7778 16.0277V16.5938C17.7778 17.3707 17.1562 18 16.3889 18H15.8333C15.7951 18 15.7569 18 15.7188 17.9965C15.6701 18 15.6215 18 15.5729 18H13.6111C12.8438 18 12.2222 17.3707 12.2222 16.5938V13.5C12.2222 12.8777 11.7257 12.375 11.1111 12.375H8.88889C8.27431 12.375 7.77778 12.8777 7.77778 13.5V16.5938C7.77778 17.3707 7.15625 18 6.38889 18H4.44792C4.39583 18 4.34375 17.9965 4.29167 17.993C4.25 17.9965 4.20833 18 4.16667 18H3.61111C2.84375 18 2.22222 17.3707 2.22222 16.5938V12.6562C2.22222 12.6246 2.22222 12.5895 2.22569 12.5578V10.1109H1.11111C0.486111 10.1109 0 9.61875 0 8.98242C0 8.66602 0.104167 8.38477 0.347222 8.13867L9.25 0.28125C9.49306 0.0351562 9.77083 0 10.0139 0C10.2569 0 10.5347 0.0703125 10.7431 0.246094L19.6111 8.13867C19.8889 8.38477 20.0278 8.66602 19.9931 8.98242Z" fill="white"/>
</svg>
