<svg width="21" height="21" viewBox="0 0 21 21" fill="none" xmlns="http://www.w3.org/2000/svg">
<path fill-rule="evenodd" clip-rule="evenodd" d="M0.916667 10.5C0.916667 5.20713 5.20713 0.916672 10.5 0.916672C15.7929 0.916672 20.0833 5.20713 20.0833 10.5C20.0833 15.7929 15.7929 20.0833 10.5 20.0833C5.20713 20.0833 0.916667 15.7929 0.916667 10.5ZM9.0625 6.66667C9.0625 6.28542 9.21395 5.91979 9.48353 5.65021C9.75312 5.38062 10.1188 5.22917 10.5 5.22917H10.5096C10.8908 5.22917 11.2565 5.38062 11.526 5.65021C11.7956 5.91979 11.9471 6.28542 11.9471 6.66667V6.67626C11.9471 7.0575 11.7956 7.42314 11.526 7.69272C11.2565 7.96231 10.8908 8.11376 10.5096 8.11376H10.5C10.1188 8.11376 9.75312 7.96231 9.48353 7.69272C9.21395 7.42314 9.0625 7.0575 9.0625 6.67626V6.66667ZM10.5 9.54167C10.7542 9.54167 10.9979 9.64264 11.1776 9.82236C11.3574 10.0021 11.4583 10.2458 11.4583 10.5V14.3333C11.4583 14.5875 11.3574 14.8313 11.1776 15.011C10.9979 15.1907 10.7542 15.2917 10.5 15.2917C10.2458 15.2917 10.0021 15.1907 9.82236 15.011C9.64263 14.8313 9.54167 14.5875 9.54167 14.3333V10.5C9.54167 10.2458 9.64263 10.0021 9.82236 9.82236C10.0021 9.64264 10.2458 9.54167 10.5 9.54167Z" fill="white"/>
</svg>
