<svg width="19" height="19" viewBox="0 0 19 19" fill="none" xmlns="http://www.w3.org/2000/svg">
<path fill-rule="evenodd" clip-rule="evenodd" d="M3.75 0.875C2.9875 0.875 2.25624 1.1779 1.71707 1.71707C1.1779 2.25624 0.875 2.9875 0.875 3.75V15.25C0.875 16.0125 1.1779 16.7438 1.71707 17.2829C2.25624 17.8221 2.9875 18.125 3.75 18.125H15.25C16.0125 18.125 16.7438 17.8221 17.2829 17.2829C17.8221 16.7438 18.125 16.0125 18.125 15.25V3.75C18.125 2.9875 17.8221 2.25624 17.2829 1.71707C16.7438 1.1779 16.0125 0.875 15.25 0.875H3.75ZM7.58333 5.66667C7.58333 5.4125 7.6843 5.16875 7.86402 4.98902C8.04375 4.8093 8.2875 4.70833 8.54167 4.70833H14.2917C14.5458 4.70833 14.7896 4.8093 14.9693 4.98902C15.149 5.16875 15.25 5.4125 15.25 5.66667C15.25 5.92083 15.149 6.16459 14.9693 6.34431C14.7896 6.52403 14.5458 6.625 14.2917 6.625H8.54167C8.2875 6.625 8.04375 6.52403 7.86402 6.34431C7.6843 6.16459 7.58333 5.92083 7.58333 5.66667ZM7.58333 9.5C7.58333 9.24583 7.6843 9.00208 7.86402 8.82236C8.04375 8.64263 8.2875 8.54167 8.54167 8.54167H14.2917C14.5458 8.54167 14.7896 8.64263 14.9693 8.82236C15.149 9.00208 15.25 9.24583 15.25 9.5C15.25 9.75417 15.149 9.99792 14.9693 10.1776C14.7896 10.3574 14.5458 10.4583 14.2917 10.4583H8.54167C8.2875 10.4583 8.04375 10.3574 7.86402 10.1776C7.6843 9.99792 7.58333 9.75417 7.58333 9.5ZM7.58333 13.3333C7.58333 13.0792 7.6843 12.8354 7.86402 12.6557C8.04375 12.476 8.2875 12.375 8.54167 12.375H14.2917C14.5458 12.375 14.7896 12.476 14.9693 12.6557C15.149 12.8354 15.25 13.0792 15.25 13.3333C15.25 13.5875 15.149 13.8313 14.9693 14.011C14.7896 14.1907 14.5458 14.2917 14.2917 14.2917H8.54167C8.2875 14.2917 8.04375 14.1907 7.86402 14.011C7.6843 13.8313 7.58333 13.5875 7.58333 13.3333ZM4.70833 4.70833C4.45417 4.70833 4.21041 4.8093 4.03069 4.98902C3.85097 5.16875 3.75 5.4125 3.75 5.66667C3.75 5.92083 3.85097 6.16459 4.03069 6.34431C4.21041 6.52403 4.45417 6.625 4.70833 6.625C4.9625 6.625 5.20721 6.52403 5.38694 6.34431C5.56666 6.16459 5.66763 5.92083 5.66763 5.66667C5.66763 5.4125 5.56666 5.16875 5.38694 4.98902C5.20721 4.8093 4.9625 4.70833 4.70833 4.70833ZM3.75 9.5C3.75 9.24583 3.85097 9.00208 4.03069 8.82236C4.21041 8.64263 4.45417 8.54167 4.70833 8.54167C4.9625 8.54167 5.20721 8.64263 5.38694 8.82236C5.56666 9.00208 5.66763 9.24583 5.66763 9.5C5.66763 9.75417 5.56666 9.99792 5.38694 10.1776C5.20721 10.3574 4.96346 10.4583 4.70929 10.4583C4.45513 10.4583 4.21041 10.3574 4.03069 10.1776C3.85097 9.99792 3.75 9.75417 3.75 9.5ZM4.70833 12.375C4.45417 12.375 4.21041 12.476 4.03069 12.6557C3.85097 12.8354 3.75 13.0792 3.75 13.3333C3.75 13.5875 3.85097 13.8313 4.03069 14.011C4.21041 14.1907 4.45417 14.2917 4.70833 14.2917C4.9625 14.2917 5.20721 14.1907 5.38694 14.011C5.56666 13.8313 5.66763 13.5875 5.66763 13.3333C5.66763 13.0792 5.56666 12.8354 5.38694 12.6557C5.20721 12.476 4.9625 12.375 4.70833 12.375Z" fill="white"/>
</svg>
