<svg width="17" height="17" viewBox="0 0 17 17" fill="none" xmlns="http://www.w3.org/2000/svg">
<path d="M8.49998 0.833336C9.51664 0.833336 10.4917 1.2372 11.2106 1.95609C11.9294 2.67498 12.3333 3.65001 12.3333 4.66667C12.3333 5.68333 11.9294 6.65836 11.2106 7.37725C10.4917 8.09613 9.51664 8.5 8.49998 8.5C7.48332 8.5 6.50829 8.09613 5.7894 7.37725C5.07051 6.65836 4.66665 5.68333 4.66665 4.66667C4.66665 3.65001 5.07051 2.67498 5.7894 1.95609C6.50829 1.2372 7.48332 0.833336 8.49998 0.833336ZM8.49998 10.4167C12.7358 10.4167 16.1666 12.1321 16.1666 14.25V16.1667H0.833313V14.25C0.833313 12.1321 4.26415 10.4167 8.49998 10.4167Z" fill="#6B89D9"/>
</svg>
